<mxfile host="app.diagrams.net" modified="2020-06-23T14:20:32.643Z" agent="5.0 (X11)" etag="flhzvXXNEQ2vplWkBQwM" version="13.3.1" type="github">
  <diagram id="8PiFhN0lOcC597OMzhLN" name="Page-1">
    <mxGraphModel dx="689" dy="457" grid="1" gridSize="10" guides="1" tooltips="1" connect="1" arrows="1" fold="1" page="1" pageScale="1" pageWidth="850" pageHeight="1100" math="0" shadow="0">
      <root>
        <mxCell id="0" />
        <mxCell id="1" parent="0" />
        <mxCell id="tEIT_M-lIr8KalQBd7Zy-1" value="" style="rounded=0;whiteSpace=wrap;html=1;" vertex="1" parent="1">
          <mxGeometry x="70" y="140" width="10" height="100" as="geometry" />
        </mxCell>
        <mxCell id="tEIT_M-lIr8KalQBd7Zy-2" value="" style="rounded=0;whiteSpace=wrap;html=1;" vertex="1" parent="1">
          <mxGeometry x="90" y="140" width="10" height="100" as="geometry" />
        </mxCell>
        <mxCell id="tEIT_M-lIr8KalQBd7Zy-3" value="" style="rounded=0;whiteSpace=wrap;html=1;" vertex="1" parent="1">
          <mxGeometry x="110" y="140" width="10" height="100" as="geometry" />
        </mxCell>
        <mxCell id="tEIT_M-lIr8KalQBd7Zy-4" value="" style="rounded=0;whiteSpace=wrap;html=1;" vertex="1" parent="1">
          <mxGeometry x="160" y="140" width="10" height="100" as="geometry" />
        </mxCell>
        <mxCell id="tEIT_M-lIr8KalQBd7Zy-6" value="Words embeddings (X)" style="text;html=1;strokeColor=none;fillColor=none;align=center;verticalAlign=middle;whiteSpace=wrap;rounded=0;" vertex="1" parent="1">
          <mxGeometry x="52.5" y="110" width="127.5" height="20" as="geometry" />
        </mxCell>
        <mxCell id="tEIT_M-lIr8KalQBd7Zy-7" value="" style="rounded=0;whiteSpace=wrap;html=1;" vertex="1" parent="1">
          <mxGeometry x="387.5" y="175" width="10" height="30" as="geometry" />
        </mxCell>
        <mxCell id="tEIT_M-lIr8KalQBd7Zy-8" value="&lt;div&gt;Multi-head&lt;/div&gt;&lt;div&gt;self-attention&lt;br&gt;&lt;/div&gt;" style="rounded=1;whiteSpace=wrap;html=1;" vertex="1" parent="1">
          <mxGeometry x="220" y="160" width="120" height="60" as="geometry" />
        </mxCell>
        <mxCell id="tEIT_M-lIr8KalQBd7Zy-9" value="" style="endArrow=classic;html=1;exitX=1;exitY=0.5;exitDx=0;exitDy=0;entryX=0;entryY=0.5;entryDx=0;entryDy=0;" edge="1" parent="1" source="tEIT_M-lIr8KalQBd7Zy-4" target="tEIT_M-lIr8KalQBd7Zy-8">
          <mxGeometry width="50" height="50" relative="1" as="geometry">
            <mxPoint x="400" y="360" as="sourcePoint" />
            <mxPoint x="450" y="310" as="targetPoint" />
          </mxGeometry>
        </mxCell>
        <mxCell id="tEIT_M-lIr8KalQBd7Zy-10" value="" style="endArrow=classic;html=1;exitX=1;exitY=0.5;exitDx=0;exitDy=0;entryX=0;entryY=0.5;entryDx=0;entryDy=0;" edge="1" parent="1" source="tEIT_M-lIr8KalQBd7Zy-8" target="tEIT_M-lIr8KalQBd7Zy-7">
          <mxGeometry width="50" height="50" relative="1" as="geometry">
            <mxPoint x="400" y="360" as="sourcePoint" />
            <mxPoint x="450" y="310" as="targetPoint" />
          </mxGeometry>
        </mxCell>
        <mxCell id="tEIT_M-lIr8KalQBd7Zy-11" value="Sentence embedding (M)" style="text;html=1;strokeColor=none;fillColor=none;align=center;verticalAlign=middle;whiteSpace=wrap;rounded=0;" vertex="1" parent="1">
          <mxGeometry x="310" y="110" width="145" height="20" as="geometry" />
        </mxCell>
        <mxCell id="tEIT_M-lIr8KalQBd7Zy-20" value="" style="triangle;whiteSpace=wrap;html=1;" vertex="1" parent="1">
          <mxGeometry x="500" y="140" width="30" height="30" as="geometry" />
        </mxCell>
        <mxCell id="tEIT_M-lIr8KalQBd7Zy-24" value="" style="endArrow=classic;html=1;exitX=1;exitY=0.5;exitDx=0;exitDy=0;entryX=0;entryY=0.5;entryDx=0;entryDy=0;" edge="1" parent="1" source="tEIT_M-lIr8KalQBd7Zy-20" target="tEIT_M-lIr8KalQBd7Zy-38">
          <mxGeometry width="50" height="50" relative="1" as="geometry">
            <mxPoint x="400" y="360" as="sourcePoint" />
            <mxPoint x="567.5" y="155" as="targetPoint" />
          </mxGeometry>
        </mxCell>
        <mxCell id="tEIT_M-lIr8KalQBd7Zy-29" value="&lt;div&gt;Cosine&lt;/div&gt;&lt;div&gt;dist(X,Ci)&lt;/div&gt;" style="text;html=1;strokeColor=none;fillColor=none;align=center;verticalAlign=middle;whiteSpace=wrap;rounded=0;" vertex="1" parent="1">
          <mxGeometry x="562.5" y="107.5" width="75" height="25" as="geometry" />
        </mxCell>
        <mxCell id="tEIT_M-lIr8KalQBd7Zy-31" value="Normalized linear layer" style="text;html=1;strokeColor=none;fillColor=none;align=center;verticalAlign=middle;whiteSpace=wrap;rounded=0;" vertex="1" parent="1">
          <mxGeometry x="475" y="110" width="80" height="20" as="geometry" />
        </mxCell>
        <mxCell id="tEIT_M-lIr8KalQBd7Zy-32" value="" style="triangle;whiteSpace=wrap;html=1;" vertex="1" parent="1">
          <mxGeometry x="500" y="210" width="30" height="30" as="geometry" />
        </mxCell>
        <mxCell id="tEIT_M-lIr8KalQBd7Zy-35" value="&lt;font style=&quot;font-size: 30px&quot;&gt;...&lt;/font&gt;" style="text;html=1;strokeColor=none;fillColor=none;align=center;verticalAlign=middle;whiteSpace=wrap;rounded=0;" vertex="1" parent="1">
          <mxGeometry x="495" y="170" width="40" height="20" as="geometry" />
        </mxCell>
        <mxCell id="tEIT_M-lIr8KalQBd7Zy-38" value="" style="rounded=0;whiteSpace=wrap;html=1;" vertex="1" parent="1">
          <mxGeometry x="595" y="150" width="10" height="10" as="geometry" />
        </mxCell>
        <mxCell id="tEIT_M-lIr8KalQBd7Zy-39" value="" style="endArrow=classic;html=1;exitX=1;exitY=0.5;exitDx=0;exitDy=0;entryX=0;entryY=0.5;entryDx=0;entryDy=0;" edge="1" target="tEIT_M-lIr8KalQBd7Zy-40" parent="1">
          <mxGeometry width="50" height="50" relative="1" as="geometry">
            <mxPoint x="530" y="225" as="sourcePoint" />
            <mxPoint x="567.5" y="225" as="targetPoint" />
          </mxGeometry>
        </mxCell>
        <mxCell id="tEIT_M-lIr8KalQBd7Zy-40" value="" style="rounded=0;whiteSpace=wrap;html=1;" vertex="1" parent="1">
          <mxGeometry x="595" y="220" width="10" height="10" as="geometry" />
        </mxCell>
        <mxCell id="tEIT_M-lIr8KalQBd7Zy-43" value="" style="rounded=0;whiteSpace=wrap;html=1;" vertex="1" parent="1">
          <mxGeometry x="595" y="170" width="10" height="10" as="geometry" />
        </mxCell>
        <mxCell id="tEIT_M-lIr8KalQBd7Zy-44" value="" style="rounded=0;whiteSpace=wrap;html=1;" vertex="1" parent="1">
          <mxGeometry x="595" y="200" width="10" height="10" as="geometry" />
        </mxCell>
        <mxCell id="tEIT_M-lIr8KalQBd7Zy-47" value="&lt;font style=&quot;font-size: 30px&quot;&gt;...&lt;/font&gt;" style="text;html=1;strokeColor=none;fillColor=none;align=center;verticalAlign=middle;whiteSpace=wrap;rounded=0;" vertex="1" parent="1">
          <mxGeometry x="120" y="170" width="40" height="20" as="geometry" />
        </mxCell>
        <mxCell id="tEIT_M-lIr8KalQBd7Zy-48" value="Avg" style="ellipse;whiteSpace=wrap;html=1;" vertex="1" parent="1">
          <mxGeometry x="635" y="180" width="30" height="20" as="geometry" />
        </mxCell>
        <mxCell id="tEIT_M-lIr8KalQBd7Zy-49" value="" style="endArrow=classic;html=1;exitX=1;exitY=0.5;exitDx=0;exitDy=0;entryX=0;entryY=0;entryDx=0;entryDy=0;" edge="1" parent="1" source="tEIT_M-lIr8KalQBd7Zy-38" target="tEIT_M-lIr8KalQBd7Zy-48">
          <mxGeometry width="50" height="50" relative="1" as="geometry">
            <mxPoint x="440" y="210" as="sourcePoint" />
            <mxPoint x="490" y="160" as="targetPoint" />
          </mxGeometry>
        </mxCell>
        <mxCell id="tEIT_M-lIr8KalQBd7Zy-50" value="" style="endArrow=classic;html=1;exitX=1;exitY=0.5;exitDx=0;exitDy=0;entryX=0;entryY=0.5;entryDx=0;entryDy=0;" edge="1" parent="1" source="tEIT_M-lIr8KalQBd7Zy-43" target="tEIT_M-lIr8KalQBd7Zy-48">
          <mxGeometry width="50" height="50" relative="1" as="geometry">
            <mxPoint x="615" y="165" as="sourcePoint" />
            <mxPoint x="649.3933982822018" y="192.92893218813458" as="targetPoint" />
          </mxGeometry>
        </mxCell>
        <mxCell id="tEIT_M-lIr8KalQBd7Zy-51" value="" style="endArrow=classic;html=1;exitX=1;exitY=0.5;exitDx=0;exitDy=0;entryX=0.069;entryY=0.754;entryDx=0;entryDy=0;entryPerimeter=0;" edge="1" parent="1" source="tEIT_M-lIr8KalQBd7Zy-44" target="tEIT_M-lIr8KalQBd7Zy-48">
          <mxGeometry width="50" height="50" relative="1" as="geometry">
            <mxPoint x="615" y="185" as="sourcePoint" />
            <mxPoint x="645" y="200" as="targetPoint" />
          </mxGeometry>
        </mxCell>
        <mxCell id="tEIT_M-lIr8KalQBd7Zy-52" value="" style="endArrow=classic;html=1;exitX=1;exitY=0.5;exitDx=0;exitDy=0;entryX=0.205;entryY=0.987;entryDx=0;entryDy=0;entryPerimeter=0;" edge="1" parent="1" source="tEIT_M-lIr8KalQBd7Zy-40" target="tEIT_M-lIr8KalQBd7Zy-48">
          <mxGeometry width="50" height="50" relative="1" as="geometry">
            <mxPoint x="615" y="215" as="sourcePoint" />
            <mxPoint x="649.3933982822018" y="207.0710678118653" as="targetPoint" />
          </mxGeometry>
        </mxCell>
        <mxCell id="tEIT_M-lIr8KalQBd7Zy-53" value="score" style="text;html=1;strokeColor=none;fillColor=none;align=center;verticalAlign=middle;whiteSpace=wrap;rounded=0;" vertex="1" parent="1">
          <mxGeometry x="690" y="180" width="40" height="20" as="geometry" />
        </mxCell>
        <mxCell id="tEIT_M-lIr8KalQBd7Zy-54" value="" style="endArrow=classic;html=1;exitX=1;exitY=0.5;exitDx=0;exitDy=0;entryX=0;entryY=0.5;entryDx=0;entryDy=0;" edge="1" parent="1" source="tEIT_M-lIr8KalQBd7Zy-48" target="tEIT_M-lIr8KalQBd7Zy-53">
          <mxGeometry width="50" height="50" relative="1" as="geometry">
            <mxPoint x="540" y="190" as="sourcePoint" />
            <mxPoint x="590" y="140" as="targetPoint" />
          </mxGeometry>
        </mxCell>
        <mxCell id="tEIT_M-lIr8KalQBd7Zy-55" value="" style="rounded=0;whiteSpace=wrap;html=1;" vertex="1" parent="1">
          <mxGeometry x="387.5" y="140" width="10" height="30" as="geometry" />
        </mxCell>
        <mxCell id="tEIT_M-lIr8KalQBd7Zy-56" value="" style="rounded=0;whiteSpace=wrap;html=1;" vertex="1" parent="1">
          <mxGeometry x="387.5" y="210" width="10" height="30" as="geometry" />
        </mxCell>
        <mxCell id="tEIT_M-lIr8KalQBd7Zy-57" value="" style="endArrow=classic;html=1;entryX=0;entryY=0.5;entryDx=0;entryDy=0;exitX=1;exitY=0.5;exitDx=0;exitDy=0;" edge="1" parent="1" source="tEIT_M-lIr8KalQBd7Zy-55" target="tEIT_M-lIr8KalQBd7Zy-20">
          <mxGeometry width="50" height="50" relative="1" as="geometry">
            <mxPoint x="360" y="200" as="sourcePoint" />
            <mxPoint x="410" y="150" as="targetPoint" />
          </mxGeometry>
        </mxCell>
        <mxCell id="tEIT_M-lIr8KalQBd7Zy-58" value="" style="endArrow=classic;html=1;entryX=0;entryY=0.5;entryDx=0;entryDy=0;exitX=1;exitY=0.5;exitDx=0;exitDy=0;" edge="1" parent="1" source="tEIT_M-lIr8KalQBd7Zy-56" target="tEIT_M-lIr8KalQBd7Zy-32">
          <mxGeometry width="50" height="50" relative="1" as="geometry">
            <mxPoint x="400" y="225" as="sourcePoint" />
            <mxPoint x="510" y="165" as="targetPoint" />
          </mxGeometry>
        </mxCell>
      </root>
    </mxGraphModel>
  </diagram>
</mxfile>
